<svg xmlns="http://www.w3.org/2000/svg" viewBox="0 0 48 48">
  <path fill="#1976d2" d="M40,44H8c-2.2,0-4-1.8-4-4V8c0-2.2,1.8-4,4-4h32c2.2,0,4,1.8,4,4v32C44,42.2,42.2,44,40,44z"/>
  <path fill="#fff" d="M24,28c-3.9,0-7-3.1-7-7s3.1-7,7-7s7,3.1,7,7S27.9,28,24,28z M24,17c-2.2,0-4,1.8-4,4s1.8,4,4,4s4-1.8,4-4 S26.2,17,24,17z"/>
  <path fill="#fff" d="M34,34H14c-0.6,0-1-0.4-1-1s0.4-1,1-1h20c0.6,0,1,0.4,1,1S34.6,34,34,34z"/>
  <path fill="#fff" d="M34,38H14c-0.6,0-1-0.4-1-1s0.4-1,1-1h20c0.6,0,1,0.4,1,1S34.6,38,34,38z"/>
</svg>
