<svg xmlns="http://www.w3.org/2000/svg" viewBox="0 0 48 48">
  <path fill="#5865f2" d="M40,12c0,0-4.6-3.5-10-4l-0.5,1c5,1.2,7.3,2.9,9.7,5c-4.2-2.1-8.2-4-15.2-4s-11,1.9-15.2,4 c2.4-2.1,5.2-4.1,9.7-5L18,8c-5.4,0.5-10,4-10,4S2.5,19.3,2,34c5.2,6,13,6,13,6l1.6-2.1c-3.1-1-5.9-2.9-8.6-6 c3.2,2.5,7.7,5,16,5s12.8-2.5,16-5c-2.7,3.1-5.5,5-8.6,6L33,40c0,0,7.8,0,13-6C45.5,19.3,40,12,40,12z M17.5,30 c-1.9,0-3.5-1.8-3.5-4s1.6-4,3.5-4s3.5,1.8,3.5,4S19.4,30,17.5,30z M30.5,30c-1.9,0-3.5-1.8-3.5-4s1.6-4,3.5-4s3.5,1.8,3.5,4 S32.4,30,30.5,30z"/>
</svg>
