<svg xmlns="http://www.w3.org/2000/svg" viewBox="0 0 48 48">
  <path fill="#4285f4" d="M37,39H11l-6,6V11c0-3.3,2.7-6,6-6h26c3.3,0,6,2.7,6,6v22C43,36.3,40.3,39,37,39z"/>
  <path fill="#fff" d="M22,20h-8c-0.6,0-1-0.4-1-1v0c0-0.6,0.4-1,1-1h8c0.6,0,1,0.4,1,1v0C23,19.6,22.6,20,22,20z"/>
  <path fill="#fff" d="M34,25H14c-0.6,0-1-0.4-1-1v0c0-0.6,0.4-1,1-1h20c0.6,0,1,0.4,1,1v0C35,24.6,34.6,25,34,25z"/>
  <path fill="#fff" d="M28,30H14c-0.6,0-1-0.4-1-1v0c0-0.6,0.4-1,1-1h14c0.6,0,1,0.4,1,1v0C29,29.6,28.6,30,28,30z"/>
</svg>
