<svg xmlns="http://www.w3.org/2000/svg" viewBox="0 0 48 48">
  <path fill="#e91e63" d="M17,11c0-2.2-1.8-4-4-4s-4,1.8-4,4s1.8,4,4,4h4V11z"/>
  <path fill="#e91e63" d="M19,11c0,2.2,1.8,4,4,4s4-1.8,4-4V4c0-2.2-1.8-4-4-4s-4,1.8-4,4V11z"/>
  <path fill="#00bcd4" d="M23,27c-2.2,0-4,1.8-4,4s1.8,4,4,4s4-1.8,4-4v-4H23z"/>
  <path fill="#00bcd4" d="M23,25c2.2,0,4-1.8,4-4s-1.8-4-4-4H4c-2.2,0-4,1.8-4,4s1.8,4,4,4H23z"/>
  <path fill="#4caf50" d="M37,23c0,2.2,1.8,4,4,4s4-1.8,4-4s-1.8-4-4-4h-4V23z"/>
  <path fill="#4caf50" d="M35,23c0-2.2-1.8-4-4-4s-4,1.8-4,4v19c0,2.2,1.8,4,4,4s4-1.8,4-4V23z"/>
  <path fill="#ff9800" d="M31,11c2.2,0,4-1.8,4-4s-1.8-4-4-4s-4,1.8-4,4v4H31z"/>
  <path fill="#ff9800" d="M31,13c-2.2,0-4,1.8-4,4s1.8,4,4,4h13c2.2,0,4-1.8,4-4s-1.8-4-4-4H31z"/>
</svg>
