<svg xmlns="http://www.w3.org/2000/svg" viewBox="0 0 48 48">
  <circle cx="24" cy="24" r="24" fill="#25D366"/>
  <path fill="#fff" d="M24 10C16.27 10 10 16.27 10 24c0 2.45.65 4.75 1.78 6.74L10 38l7.47-1.75A13.93 13.93 0 0 0 24 38c7.73 0 14-6.27 14-14S31.73 10 24 10zm0 25.5c-2.18 0-4.22-.6-5.97-1.63l-.43-.25-4.43 1.04 1.06-4.32-.28-.45A11.44 11.44 0 0 1 12.5 24c0-6.34 5.16-11.5 11.5-11.5S35.5 17.66 35.5 24 30.34 35.5 24 35.5zm6.3-8.6c-.35-.17-2.05-1.01-2.37-1.13-.32-.11-.55-.17-.78.17-.23.35-.88 1.13-1.08 1.36-.2.23-.4.26-.74.09-.35-.17-1.46-.54-2.78-1.72-1.03-.92-1.72-2.05-1.92-2.4-.2-.34-.02-.53.15-.7.15-.15.35-.4.52-.6.17-.2.23-.34.35-.57.11-.23.06-.43-.03-.6-.09-.17-.78-1.88-1.07-2.57-.28-.67-.57-.58-.78-.59h-.66c-.23 0-.6.09-.91.43-.32.35-1.2 1.17-1.2 2.85s1.23 3.3 1.4 3.53c.17.23 2.42 3.7 5.87 5.19.82.35 1.46.56 1.96.72.82.26 1.57.22 2.16.13.66-.1 2.05-.84 2.34-1.65.29-.81.29-1.5.2-1.65-.08-.14-.3-.23-.65-.4z"/>
</svg>
